<svg xmlns="http://www.w3.org/2000/svg" xmlns:xlink="http://www.w3.org/1999/xlink" width="500" zoomAndPan="magnify" viewBox="0 0 375 374.999991" height="500" preserveAspectRatio="xMidYMid meet" version="1.0"><defs><g/><clipPath id="id1"><path d="M 62 167 L 317 167 L 317 246 L 62 246 Z M 62 167 " clip-rule="nonzero"/></clipPath><clipPath id="id2"><path d="M 60.425781 173.6875 L 316.046875 165.511719 L 318.394531 238.976562 L 62.773438 247.148438 Z M 60.425781 173.6875 " clip-rule="nonzero"/></clipPath><clipPath id="id3"><path d="M 60.425781 173.6875 L 316.046875 165.511719 L 318.394531 238.976562 L 62.773438 247.148438 Z M 60.425781 173.6875 " clip-rule="nonzero"/></clipPath></defs><rect x="-37.5" width="450" fill="rgb(100%, 100%, 100%)" y="-37.499999" height="449.999989" fill-opacity="1"/><rect x="-37.5" width="450" fill="rgb(100%, 100%, 100%)" y="-37.499999" height="449.999989" fill-opacity="1"/><rect x="-37.5" width="450" fill="rgb(100%, 100%, 100%)" y="-37.499999" height="449.999989" fill-opacity="1"/><rect x="-37.5" width="450" fill="rgb(100%, 100%, 100%)" y="-37.499999" height="449.999989" fill-opacity="1"/><g clip-path="url(#id1)"><g clip-path="url(#id2)"><g clip-path="url(#id3)"><path fill="rgb(100%, 100%, 100%)" d="M 306.476562 168.28125 C 315.171875 177.808594 316.378906 184.191406 311.5 194.367188 C 312.207031 197.023438 312.816406 199.820312 313.679688 202.546875 C 314.542969 205.273438 315.640625 207.957031 316.796875 211.089844 C 312.574219 214.03125 311.253906 218.847656 309.019531 223.507812 C 306.816406 223.765625 304.570312 224.128906 302.316406 224.289062 C 277.652344 225.988281 252.90625 227.386719 228.332031 229.449219 C 210.046875 230.949219 191.910156 233.488281 173.914062 237.0625 C 167.609375 238.324219 161.261719 238.339844 154.828125 238.445312 C 137.90625 238.675781 121.167969 240.554688 104.613281 244.082031 C 95.234375 246.113281 86.160156 245.390625 77.023438 243.15625 C 65.832031 240.457031 65.832031 240.480469 63.039062 230.097656 C 62.402344 227.726562 62.347656 225.226562 64.097656 223.554688 C 67.792969 220.074219 67.65625 215.722656 67.351562 211.433594 C 66.972656 205.496094 68.738281 200.019531 70.367188 194.496094 C 70.542969 193.789062 70.828125 193.128906 71.226562 192.511719 C 71.621094 191.898438 72.105469 191.367188 72.679688 190.910156 C 73.25 190.457031 73.882812 190.105469 74.570312 189.859375 C 75.261719 189.609375 75.972656 189.480469 76.703125 189.464844 C 81.625 188.96875 86.515625 188.179688 91.40625 187.515625 C 92.859375 187.40625 94.296875 187.175781 95.710938 186.824219 C 112.175781 181.609375 129.425781 181.234375 146.332031 178.722656 C 156.4375 177.226562 166.554688 176.042969 176.6875 175.226562 C 185.898438 174.542969 195.128906 174.058594 204.375 173.773438 C 220.050781 173.269531 235.675781 171.230469 251.316406 169.742188 C 253.042969 169.507812 254.722656 169.085938 256.355469 168.484375 C 257.859375 167.902344 259.417969 167.65625 261.03125 167.75 C 262.644531 167.84375 264.160156 168.269531 265.589844 169.023438 C 267.753906 169.875 270 170.226562 272.324219 170.070312 C 275.820312 170.035156 279.304688 169.808594 282.773438 169.382812 C 286.808594 168.910156 290.800781 167.863281 294.859375 167.730469 C 298.742188 167.707031 302.613281 167.890625 306.476562 168.28125 Z M 306.476562 168.28125 " fill-opacity="1" fill-rule="nonzero"/></g></g></g><g fill="rgb(0%, 0%, 0%)" fill-opacity="1"><g transform="translate(85.786859, 223.432764)"><g><path d="M 23.527344 -6.457031 C 17.289062 -3.945312 12.695312 -3.730469 9.613281 -5.808594 C 6.527344 -7.820312 5.238281 -10.902344 5.882812 -15.0625 C 6.457031 -19.152344 9.183594 -23.097656 13.988281 -26.828125 C 18.792969 -30.558594 25.96875 -32.855469 35.507812 -33.785156 C 39.882812 -34.074219 44.1875 -34.21875 48.492188 -34.21875 C 45.835938 -28.691406 42.464844 -23.386719 38.234375 -18.148438 C 34 -12.910156 29.050781 -9.039062 23.527344 -6.457031 Z M 68.9375 -36.585938 C 65.5625 -36.585938 62.121094 -36.585938 58.679688 -36.65625 C 56.742188 -36.726562 54.734375 -36.726562 52.722656 -36.800781 C 55.378906 -42.609375 57.316406 -48.636719 58.679688 -55.019531 C 59.96875 -61.332031 60.113281 -67.140625 59.109375 -72.449219 C 57.457031 -79.121094 53.871094 -83.140625 48.347656 -84.5 C 42.824219 -85.863281 36.511719 -84.859375 29.554688 -81.34375 C 22.597656 -77.832031 16.140625 -72.09375 10.328125 -64.058594 C 6.957031 -59.25 4.449219 -54.375 2.652344 -49.566406 C 0.859375 -44.691406 0.144531 -40.601562 0.359375 -37.300781 C 0.574219 -34 2.007812 -32.28125 4.664062 -32.136719 C 5.238281 -32.136719 5.667969 -32.351562 6.027344 -32.855469 C 6.3125 -33.355469 6.457031 -33.785156 6.382812 -34.289062 C 6.3125 -34.71875 5.953125 -34.933594 5.453125 -35.007812 C 3.945312 -35.148438 3.15625 -36.585938 3.226562 -39.382812 C 3.300781 -42.179688 4.089844 -45.621094 5.738281 -49.855469 C 7.316406 -54.085938 9.613281 -58.390625 12.695312 -62.839844 C 17.71875 -69.652344 23.3125 -74.816406 29.484375 -78.1875 C 35.652344 -81.5625 41.246094 -82.78125 46.269531 -81.847656 C 51.289062 -80.914062 54.515625 -77.328125 56.023438 -71.160156 C 57.027344 -66.066406 56.882812 -60.472656 55.59375 -54.375 C 54.230469 -48.203125 52.292969 -42.324219 49.78125 -36.800781 C 45.265625 -36.871094 40.671875 -36.726562 36.011719 -36.511719 C 27.332031 -35.796875 20.445312 -33.859375 15.277344 -30.773438 C 10.113281 -27.6875 6.527344 -24.101562 4.589844 -20.085938 C 2.652344 -16.066406 2.152344 -12.339844 3.15625 -8.964844 C 4.089844 -5.59375 6.382812 -3.300781 9.972656 -2.082031 C 13.484375 -0.859375 18.21875 -1.433594 24.175781 -3.800781 C 30.273438 -6.671875 35.652344 -10.976562 40.3125 -16.640625 C 44.976562 -22.308594 48.707031 -28.121094 51.503906 -34.21875 L 52.582031 -34.21875 C 57.671875 -34.144531 62.980469 -34.144531 68.363281 -34.21875 C 68.863281 -34.289062 69.292969 -34.503906 69.582031 -34.863281 C 69.796875 -35.222656 69.941406 -35.578125 69.867188 -35.9375 C 69.796875 -36.296875 69.4375 -36.511719 68.9375 -36.585938 Z M 68.9375 -36.585938 "/></g></g></g><g fill="rgb(0%, 0%, 0%)" fill-opacity="1"><g transform="translate(153.071064, 223.432764)"><g><path d="M 24.675781 -35.4375 C 19.65625 -30.917969 15.636719 -28.765625 12.625 -29.050781 C 10.902344 -29.265625 10.042969 -30.128906 10.042969 -31.5625 C 9.972656 -32.925781 10.257812 -34.574219 10.832031 -36.367188 L 10.976562 -36.800781 C 11.046875 -37.445312 10.976562 -37.875 10.617188 -38.089844 C 10.257812 -38.304688 9.828125 -38.304688 9.324219 -38.164062 C 8.824219 -38.019531 8.464844 -37.660156 8.175781 -37.085938 C 6.957031 -34.863281 5.882812 -33.140625 5.019531 -31.992188 C 4.160156 -30.773438 3.515625 -29.984375 3.011719 -29.625 C 2.511719 -29.195312 2.152344 -28.980469 2.007812 -28.980469 C 1.9375 -28.980469 1.792969 -28.980469 1.722656 -29.050781 C 1.578125 -29.050781 1.433594 -29.125 1.363281 -29.265625 C 1.292969 -29.410156 1.21875 -29.625 1.21875 -29.984375 C 1.21875 -30.703125 1.433594 -31.492188 1.863281 -32.421875 C 2.222656 -33.285156 2.652344 -34 3.15625 -34.574219 C 3.660156 -35.148438 4.015625 -35.292969 4.375 -35.007812 C 4.734375 -34.648438 5.238281 -34.574219 5.738281 -34.789062 C 6.242188 -35.007812 6.671875 -35.363281 6.957031 -35.867188 C 7.171875 -36.367188 7.171875 -36.800781 6.816406 -37.230469 C 5.738281 -38.304688 4.519531 -38.449219 3.15625 -37.730469 C 1.792969 -37.015625 0.644531 -35.867188 -0.285156 -34.21875 C -1.292969 -32.566406 -1.792969 -30.84375 -1.792969 -29.125 C -1.648438 -27.113281 -0.644531 -26.109375 1.21875 -26.109375 C 3.011719 -26.109375 4.949219 -27.546875 7.03125 -30.34375 C 7.246094 -28.835938 7.820312 -27.761719 8.75 -27.113281 C 9.683594 -26.46875 10.902344 -26.109375 12.480469 -26.109375 C 16.285156 -26.109375 20.945312 -28.621094 26.398438 -33.570312 C 26.898438 -34.074219 27.113281 -34.574219 27.042969 -35.078125 C 26.898438 -35.507812 26.613281 -35.796875 26.183594 -35.9375 C 25.679688 -36.082031 25.179688 -35.9375 24.675781 -35.4375 Z M 24.675781 -35.4375 "/></g></g></g><g fill="rgb(0%, 0%, 0%)" fill-opacity="1"><g transform="translate(177.746722, 223.432764)"><g><path d="M 42.109375 -35.292969 C 41.890625 -35.078125 41.605469 -34.933594 41.320312 -34.71875 C 39.667969 -33.429688 37.875 -32.136719 35.867188 -30.917969 C 33.785156 -29.625 31.992188 -28.980469 30.34375 -28.980469 C 29.265625 -28.980469 28.621094 -29.265625 28.335938 -29.914062 C 28.046875 -30.488281 27.902344 -31.492188 27.902344 -32.855469 C 27.832031 -33.644531 27.761719 -34.433594 27.6875 -35.222656 C 27.546875 -36.011719 27.257812 -36.65625 26.757812 -37.230469 C 26.253906 -37.730469 25.464844 -38.019531 24.390625 -38.019531 C 23.242188 -38.019531 22.164062 -37.660156 21.160156 -36.941406 C 20.085938 -36.152344 19.152344 -35.292969 18.292969 -34.21875 C 17.359375 -33.140625 16.570312 -32.136719 15.78125 -31.0625 C 15.496094 -30.703125 15.207031 -30.273438 14.847656 -29.839844 C 14.921875 -30.199219 14.992188 -30.558594 15.0625 -30.917969 C 15.277344 -31.777344 15.496094 -32.78125 15.566406 -33.859375 C 15.636719 -34.933594 15.496094 -35.9375 15.0625 -36.800781 C 14.5625 -37.589844 13.558594 -38.019531 12.050781 -38.019531 C 10.328125 -38.019531 8.679688 -37.375 7.171875 -36.152344 C 5.59375 -34.863281 4.015625 -33.355469 2.511719 -31.707031 L 1.507812 -30.703125 C 1.863281 -32.066406 2.222656 -33.355469 2.582031 -34.648438 C 2.796875 -35.363281 3.011719 -36.011719 3.15625 -36.585938 C 3.300781 -37.230469 3.15625 -37.660156 2.796875 -37.875 C 2.367188 -38.089844 1.863281 -38.089844 1.363281 -37.875 C 0.859375 -37.660156 0.503906 -37.230469 0.285156 -36.585938 C -0.0703125 -35.363281 -0.359375 -34.289062 -0.644531 -33.285156 C -1.433594 -30.628906 -1.863281 -28.621094 -1.9375 -27.402344 C -1.863281 -26.613281 -1.507812 -26.183594 -0.71875 -26.109375 C 0 -26.039062 0.71875 -26.324219 1.363281 -26.972656 C 1.863281 -27.472656 2.367188 -28.046875 2.871094 -28.550781 C 4.519531 -30.414062 6.097656 -31.992188 7.53125 -33.285156 C 8.894531 -34.503906 10.1875 -35.148438 11.261719 -35.148438 C 12.050781 -35.148438 12.480469 -34.863281 12.625 -34.21875 C 12.695312 -33.570312 12.554688 -32.421875 12.195312 -30.773438 C 11.980469 -30.054688 11.90625 -29.339844 11.835938 -28.621094 C 11.765625 -27.902344 11.835938 -27.332031 12.050781 -26.828125 C 12.265625 -26.324219 12.839844 -26.109375 13.699219 -26.109375 C 14.488281 -26.109375 15.207031 -26.46875 15.851562 -27.113281 C 16.5 -27.761719 17.289062 -28.691406 18.078125 -29.839844 C 18.867188 -30.988281 19.796875 -32.136719 20.875 -33.355469 C 21.878906 -34.574219 22.8125 -35.148438 23.601562 -35.148438 C 24.101562 -35.148438 24.460938 -34.933594 24.605469 -34.503906 C 24.746094 -34 24.820312 -33.210938 24.890625 -32.066406 C 24.890625 -31.203125 24.964844 -30.34375 25.179688 -29.410156 C 25.320312 -28.476562 25.753906 -27.761719 26.398438 -27.113281 C 27.042969 -26.46875 28.046875 -26.109375 29.554688 -26.109375 C 31.777344 -26.109375 34 -26.828125 36.367188 -28.261719 C 38.664062 -29.625 40.816406 -31.132812 42.824219 -32.640625 C 43.039062 -32.855469 43.253906 -32.996094 43.46875 -33.140625 C 44.042969 -33.644531 44.332031 -34.074219 44.332031 -34.574219 C 44.257812 -35.078125 44.042969 -35.363281 43.6875 -35.578125 C 43.253906 -35.796875 42.753906 -35.652344 42.109375 -35.292969 Z M 42.109375 -35.292969 "/></g></g></g><g fill="rgb(0%, 0%, 0%)" fill-opacity="1"><g transform="translate(219.781418, 223.432764)"><g><path d="M 24.675781 -35.4375 C 19.65625 -30.917969 15.636719 -28.765625 12.625 -29.050781 C 10.902344 -29.265625 10.042969 -30.128906 10.042969 -31.5625 C 9.972656 -32.925781 10.257812 -34.574219 10.832031 -36.367188 L 10.976562 -36.800781 C 11.046875 -37.445312 10.976562 -37.875 10.617188 -38.089844 C 10.257812 -38.304688 9.828125 -38.304688 9.324219 -38.164062 C 8.824219 -38.019531 8.464844 -37.660156 8.175781 -37.085938 C 6.957031 -34.863281 5.882812 -33.140625 5.019531 -31.992188 C 4.160156 -30.773438 3.515625 -29.984375 3.011719 -29.625 C 2.511719 -29.195312 2.152344 -28.980469 2.007812 -28.980469 C 1.9375 -28.980469 1.792969 -28.980469 1.722656 -29.050781 C 1.578125 -29.050781 1.433594 -29.125 1.363281 -29.265625 C 1.292969 -29.410156 1.21875 -29.625 1.21875 -29.984375 C 1.21875 -30.703125 1.433594 -31.492188 1.863281 -32.421875 C 2.222656 -33.285156 2.652344 -34 3.15625 -34.574219 C 3.660156 -35.148438 4.015625 -35.292969 4.375 -35.007812 C 4.734375 -34.648438 5.238281 -34.574219 5.738281 -34.789062 C 6.242188 -35.007812 6.671875 -35.363281 6.957031 -35.867188 C 7.171875 -36.367188 7.171875 -36.800781 6.816406 -37.230469 C 5.738281 -38.304688 4.519531 -38.449219 3.15625 -37.730469 C 1.792969 -37.015625 0.644531 -35.867188 -0.285156 -34.21875 C -1.292969 -32.566406 -1.792969 -30.84375 -1.792969 -29.125 C -1.648438 -27.113281 -0.644531 -26.109375 1.21875 -26.109375 C 3.011719 -26.109375 4.949219 -27.546875 7.03125 -30.34375 C 7.246094 -28.835938 7.820312 -27.761719 8.75 -27.113281 C 9.683594 -26.46875 10.902344 -26.109375 12.480469 -26.109375 C 16.285156 -26.109375 20.945312 -28.621094 26.398438 -33.570312 C 26.898438 -34.074219 27.113281 -34.574219 27.042969 -35.078125 C 26.898438 -35.507812 26.613281 -35.796875 26.183594 -35.9375 C 25.679688 -36.082031 25.179688 -35.9375 24.675781 -35.4375 Z M 24.675781 -35.4375 "/></g></g></g><g fill="rgb(0%, 0%, 0%)" fill-opacity="1"><g transform="translate(244.457076, 223.432764)"><g><path d="M 23.527344 -35.9375 C 21.589844 -34.863281 19.65625 -34.074219 17.644531 -33.714844 C 15.566406 -33.285156 14.058594 -33.140625 13.054688 -33.355469 C 12.480469 -33.5 12.050781 -33.785156 11.835938 -34.289062 C 11.621094 -34.789062 11.40625 -35.292969 11.261719 -35.867188 C 11.117188 -36.65625 10.902344 -37.300781 10.542969 -37.875 C 10.1875 -38.449219 9.46875 -38.734375 8.394531 -38.734375 C 7.101562 -38.734375 5.953125 -38.234375 5.019531 -37.230469 C 4.089844 -36.152344 3.226562 -34.933594 2.511719 -33.570312 C 2.726562 -34.503906 3.011719 -35.507812 3.371094 -36.726562 C 3.441406 -37.375 3.300781 -37.804688 2.941406 -38.019531 C 2.511719 -38.234375 2.082031 -38.234375 1.578125 -38.019531 C 1.074219 -37.804688 0.644531 -37.375 0.429688 -36.726562 C -0.644531 -32.925781 -1.21875 -30.128906 -1.292969 -28.476562 C -1.433594 -26.757812 -0.933594 -25.894531 0.285156 -25.894531 C 1.074219 -25.894531 1.792969 -26.253906 2.296875 -27.042969 C 2.796875 -27.761719 3.300781 -28.765625 3.800781 -30.054688 C 4.089844 -30.703125 4.449219 -31.417969 4.949219 -32.351562 C 5.378906 -33.210938 5.808594 -34 6.3125 -34.789062 C 6.816406 -35.507812 7.246094 -35.867188 7.605469 -35.867188 C 7.820312 -35.867188 7.960938 -35.722656 8.035156 -35.507812 C 8.105469 -35.292969 8.25 -34.933594 8.320312 -34.574219 C 8.535156 -33.785156 8.824219 -32.996094 9.324219 -32.207031 C 9.753906 -31.417969 10.542969 -30.84375 11.691406 -30.558594 C 13.054688 -30.273438 14.992188 -30.414062 17.503906 -30.917969 C 19.941406 -31.417969 22.308594 -32.28125 24.605469 -33.570312 C 25.25 -33.929688 25.535156 -34.433594 25.609375 -34.933594 C 25.609375 -35.4375 25.394531 -35.796875 25.035156 -36.082031 C 24.675781 -36.296875 24.175781 -36.296875 23.527344 -35.9375 Z M 23.527344 -35.9375 "/></g></g></g><g fill="rgb(0%, 0%, 0%)" fill-opacity="1"><g transform="translate(190.906398, 222.620186)"><g><path d="M 3.273438 -8.957031 L 2.761719 -8.957031 C 2.699219 -8.980469 2.617188 -9 2.535156 -9 C 2.496094 -9.019531 2.453125 -9.039062 2.414062 -9.039062 C 2.3125 -9.101562 2.1875 -9.121094 2.085938 -9.121094 L 1.964844 -9.121094 L 1.964844 -9.46875 C 1.984375 -9.675781 1.984375 -9.960938 1.984375 -10.328125 C 1.984375 -10.71875 1.984375 -10.941406 1.984375 -11.003906 C 1.964844 -11.066406 1.964844 -11.167969 1.964844 -11.332031 C 1.964844 -11.472656 1.964844 -11.617188 1.941406 -11.71875 L 2.167969 -11.945312 C 2.1875 -11.945312 2.207031 -11.964844 2.25 -11.984375 C 2.269531 -12.003906 2.3125 -12.027344 2.351562 -12.027344 C 2.433594 -12.066406 2.597656 -12.085938 2.824219 -12.085938 C 2.902344 -12.085938 2.984375 -12.066406 3.046875 -12.027344 C 3.109375 -12.027344 3.148438 -12.027344 3.191406 -12.003906 C 3.210938 -11.984375 3.230469 -11.964844 3.25 -11.945312 C 3.332031 -11.902344 3.394531 -11.863281 3.4375 -11.820312 C 3.558594 -11.761719 3.722656 -11.597656 3.949219 -11.289062 C 3.988281 -11.226562 4.027344 -11.167969 4.070312 -11.085938 C 4.109375 -11.003906 4.152344 -10.902344 4.214844 -10.777344 C 4.253906 -10.65625 4.273438 -10.53125 4.296875 -10.390625 L 4.296875 -10.144531 C 4.296875 -9.980469 4.296875 -9.878906 4.296875 -9.816406 C 4.273438 -9.753906 4.253906 -9.632812 4.191406 -9.488281 C 4.171875 -9.40625 4.132812 -9.347656 4.109375 -9.328125 C 4.070312 -9.285156 4.027344 -9.265625 4.007812 -9.246094 C 3.988281 -9.222656 3.96875 -9.203125 3.949219 -9.183594 C 3.925781 -9.164062 3.886719 -9.164062 3.84375 -9.140625 C 3.804688 -9.121094 3.761719 -9.101562 3.703125 -9.082031 C 3.640625 -9.058594 3.578125 -9.039062 3.519531 -9.019531 C 3.457031 -9 3.375 -8.980469 3.273438 -8.957031 Z M 5.5625 -2.515625 C 5.808594 -2.515625 6.011719 -2.597656 6.15625 -2.761719 C 6.300781 -2.925781 6.359375 -3.109375 6.359375 -3.292969 C 6.359375 -3.394531 6.339844 -3.519531 6.300781 -3.640625 C 6.277344 -3.761719 6.257812 -3.84375 6.238281 -3.886719 C 6.21875 -3.90625 6.195312 -3.949219 6.175781 -3.988281 C 6.15625 -4.007812 6.136719 -4.050781 6.117188 -4.109375 C 6.074219 -4.234375 6.054688 -4.296875 6.035156 -4.316406 C 5.972656 -4.480469 5.910156 -4.644531 5.828125 -4.785156 C 5.707031 -5.113281 5.542969 -5.417969 5.339844 -5.707031 C 5.234375 -5.953125 5.050781 -6.21875 4.785156 -6.523438 C 4.683594 -6.6875 4.582031 -6.832031 4.457031 -6.933594 C 4.316406 -7.117188 4.152344 -7.28125 3.96875 -7.425781 L 4.050781 -7.445312 C 4.234375 -7.507812 4.417969 -7.585938 4.644531 -7.691406 L 4.722656 -7.730469 C 5.011719 -7.914062 5.234375 -8.097656 5.378906 -8.285156 C 5.625 -8.609375 5.769531 -8.898438 5.789062 -9.121094 C 5.890625 -9.367188 5.929688 -9.652344 5.929688 -9.960938 L 5.929688 -10.410156 C 5.929688 -10.574219 5.910156 -10.738281 5.871094 -10.902344 C 5.828125 -11.066406 5.789062 -11.226562 5.726562 -11.390625 C 5.664062 -11.554688 5.605469 -11.679688 5.542969 -11.78125 C 5.460938 -11.964844 5.378906 -12.109375 5.296875 -12.210938 C 5.195312 -12.375 5.09375 -12.496094 5.011719 -12.578125 C 4.785156 -12.886719 4.5625 -13.089844 4.335938 -13.191406 C 4.214844 -13.292969 4.089844 -13.375 3.949219 -13.417969 C 3.539062 -13.621094 3.089844 -13.722656 2.578125 -13.722656 C 2.3125 -13.722656 2.023438 -13.664062 1.71875 -13.539062 C 1.699219 -13.539062 1.675781 -13.539062 1.65625 -13.519531 C 1.636719 -13.5 1.636719 -13.5 1.617188 -13.5 C 1.472656 -13.664062 1.269531 -13.742188 1.023438 -13.742188 C 0.777344 -13.742188 0.574219 -13.640625 0.386719 -13.457031 C 0.265625 -13.316406 0.203125 -13.128906 0.203125 -12.925781 L 0.226562 -12.699219 L 0.246094 -12.679688 C 0.246094 -12.660156 0.246094 -12.660156 0.265625 -12.640625 C 0.265625 -12.621094 0.265625 -12.597656 0.265625 -12.578125 C 0.265625 -12.539062 0.265625 -12.496094 0.285156 -12.476562 C 0.285156 -12.457031 0.285156 -12.414062 0.285156 -12.375 C 0.285156 -12.332031 0.285156 -12.292969 0.308594 -12.25 C 0.308594 -12.210938 0.308594 -12.109375 0.308594 -11.964844 C 0.308594 -11.820312 0.308594 -11.71875 0.328125 -11.679688 C 0.328125 -11.617188 0.328125 -11.515625 0.328125 -11.332031 C 0.328125 -11.148438 0.328125 -11.042969 0.347656 -10.984375 C 0.347656 -10.921875 0.347656 -10.695312 0.347656 -10.328125 C 0.347656 -9.960938 0.347656 -9.675781 0.328125 -9.46875 C 0.328125 -8.058594 0.328125 -7.21875 0.308594 -6.996094 C 0.285156 -6.890625 0.285156 -6.8125 0.285156 -6.75 C 0.285156 -6.667969 0.285156 -6.585938 0.285156 -6.503906 C 0.265625 -6.421875 0.265625 -6.339844 0.265625 -6.257812 C 0.265625 -6.15625 0.265625 -6.074219 0.265625 -5.992188 C 0.246094 -5.910156 0.246094 -5.808594 0.246094 -5.707031 C 0.246094 -5.605469 0.246094 -5.441406 0.226562 -5.234375 L 0.226562 -3.722656 C 0.246094 -3.679688 0.246094 -3.621094 0.246094 -3.558594 C 0.265625 -3.210938 0.429688 -2.964844 0.695312 -2.824219 C 0.839844 -2.761719 0.960938 -2.742188 1.082031 -2.742188 C 1.226562 -2.742188 1.371094 -2.78125 1.511719 -2.863281 C 1.757812 -3.007812 1.882812 -3.230469 1.882812 -3.539062 C 1.882812 -3.722656 1.882812 -3.804688 1.859375 -3.824219 L 1.859375 -5.195312 L 1.921875 -6.769531 C 2.003906 -6.75 2.105469 -6.707031 2.230469 -6.648438 L 2.289062 -6.625 C 2.476562 -6.542969 2.636719 -6.441406 2.742188 -6.339844 C 2.824219 -6.300781 2.902344 -6.21875 2.984375 -6.117188 C 3.066406 -6.074219 3.148438 -5.992188 3.230469 -5.847656 C 3.3125 -5.769531 3.394531 -5.664062 3.496094 -5.542969 C 3.601562 -5.417969 3.679688 -5.296875 3.742188 -5.195312 C 3.804688 -5.09375 3.886719 -4.96875 3.949219 -4.847656 C 4.089844 -4.621094 4.234375 -4.375 4.335938 -4.109375 C 4.398438 -4.027344 4.457031 -3.867188 4.5625 -3.601562 L 4.601562 -3.496094 C 4.664062 -3.414062 4.683594 -3.332031 4.683594 -3.273438 C 4.722656 -3.25 4.746094 -3.191406 4.765625 -3.109375 C 4.910156 -2.71875 5.175781 -2.535156 5.5625 -2.515625 Z M 5.5625 -2.515625 "/></g></g></g><g fill="rgb(0%, 0%, 0%)" fill-opacity="1"><g transform="translate(202.809367, 222.620186)"><g><path d="M 1.023438 -2.882812 C 1.164062 -2.882812 1.289062 -2.925781 1.433594 -2.984375 C 1.699219 -3.128906 1.839844 -3.394531 1.839844 -3.761719 L 1.839844 -12.742188 C 1.839844 -13.109375 1.699219 -13.375 1.433594 -13.519531 C 1.289062 -13.601562 1.164062 -13.640625 1.023438 -13.640625 C 0.878906 -13.640625 0.757812 -13.601562 0.613281 -13.519531 C 0.347656 -13.375 0.203125 -13.109375 0.203125 -12.742188 L 0.203125 -3.761719 C 0.203125 -3.394531 0.347656 -3.128906 0.613281 -2.984375 C 0.757812 -2.925781 0.878906 -2.882812 1.023438 -2.882812 Z M 1.023438 -2.882812 "/></g></g></g><g fill="rgb(0%, 0%, 0%)" fill-opacity="1"><g transform="translate(210.193076, 222.620186)"><g><path d="M 0.59375 -13.316406 L 0.574219 -13.375 C 0.59375 -13.355469 0.59375 -13.335938 0.59375 -13.316406 Z M 1.023438 -3.230469 C 1.125 -3.230469 1.207031 -3.25 1.308594 -3.273438 C 1.410156 -3.273438 1.492188 -3.273438 1.535156 -3.273438 C 1.574219 -3.25 2.742188 -3.25 5.011719 -3.25 C 5.417969 -3.25 5.707031 -3.394531 5.871094 -3.660156 C 5.953125 -3.804688 5.992188 -3.949219 5.992188 -4.089844 C 5.992188 -4.234375 5.953125 -4.355469 5.871094 -4.480469 C 5.6875 -4.746094 5.398438 -4.886719 4.992188 -4.886719 L 1.882812 -4.886719 L 1.882812 -5.070312 C 1.902344 -5.214844 1.902344 -5.378906 1.902344 -5.542969 C 1.921875 -5.542969 1.921875 -5.582031 1.921875 -5.6875 C 1.921875 -5.789062 1.921875 -5.847656 1.941406 -5.910156 C 1.941406 -5.953125 1.941406 -5.992188 1.941406 -6.011719 L 1.964844 -6.464844 C 1.964844 -6.625 1.964844 -6.75 1.984375 -6.8125 C 1.984375 -6.871094 1.984375 -6.914062 1.984375 -6.933594 L 2.023438 -7.875 C 2.023438 -7.996094 2.023438 -8.097656 2.046875 -8.179688 C 2.046875 -8.242188 2.046875 -8.324219 2.046875 -8.386719 C 2.046875 -8.445312 2.046875 -8.507812 2.066406 -8.589844 C 2.066406 -8.671875 2.066406 -8.753906 2.066406 -8.816406 C 2.066406 -8.875 2.066406 -8.957031 2.085938 -9.039062 C 2.105469 -9.265625 2.105469 -9.488281 2.105469 -9.714844 C 2.105469 -9.796875 2.105469 -9.878906 2.128906 -9.960938 C 2.128906 -10.042969 2.128906 -10.265625 2.128906 -10.613281 C 2.148438 -10.941406 2.167969 -11.226562 2.167969 -11.453125 C 2.167969 -11.554688 2.167969 -11.65625 2.1875 -11.71875 C 2.1875 -11.78125 2.1875 -11.964844 2.1875 -12.25 C 2.207031 -12.394531 2.207031 -12.640625 2.207031 -12.96875 C 2.207031 -13.355469 2.207031 -13.558594 2.1875 -13.621094 C 2.167969 -13.847656 2.066406 -14.03125 1.921875 -14.152344 C 1.757812 -14.253906 1.574219 -14.316406 1.371094 -14.316406 C 1.144531 -14.316406 0.960938 -14.234375 0.796875 -14.089844 C 0.632812 -13.929688 0.550781 -13.742188 0.550781 -13.539062 L 0.574219 -13.027344 C 0.574219 -12.699219 0.574219 -12.457031 0.550781 -12.292969 C 0.550781 -11.84375 0.53125 -11.453125 0.511719 -11.105469 C 0.511719 -10.757812 0.511719 -10.554688 0.511719 -10.492188 C 0.492188 -10.410156 0.492188 -10.328125 0.492188 -10.265625 C 0.492188 -10.207031 0.492188 -10.125 0.492188 -10.042969 C 0.46875 -9.960938 0.46875 -9.878906 0.46875 -9.816406 C 0.46875 -9.753906 0.46875 -9.675781 0.46875 -9.59375 C 0.449219 -9.511719 0.449219 -9.429688 0.449219 -9.367188 C 0.449219 -9.285156 0.449219 -9.203125 0.449219 -9.121094 C 0.429688 -9.039062 0.429688 -8.957031 0.429688 -8.875 C 0.429688 -8.488281 0.410156 -8.097656 0.386719 -7.730469 C 0.367188 -7.648438 0.367188 -7.546875 0.367188 -7.402344 C 0.367188 -7.261719 0.367188 -7.160156 0.367188 -7.117188 C 0.347656 -7.078125 0.347656 -6.996094 0.347656 -6.890625 C 0.347656 -6.769531 0.347656 -6.6875 0.347656 -6.648438 C 0.328125 -6.605469 0.328125 -6.566406 0.328125 -6.542969 L 0.308594 -6.074219 C 0.308594 -6.054688 0.308594 -6.035156 0.308594 -6.011719 C 0.285156 -5.972656 0.285156 -5.871094 0.285156 -5.726562 C 0.285156 -5.625 0.285156 -5.5625 0.285156 -5.542969 C 0.265625 -5.523438 0.265625 -5.417969 0.265625 -5.257812 C 0.265625 -5.09375 0.265625 -4.949219 0.246094 -4.804688 C 0.226562 -4.703125 0.226562 -4.519531 0.203125 -4.214844 C 0.203125 -3.824219 0.308594 -3.539062 0.53125 -3.375 C 0.675781 -3.273438 0.839844 -3.230469 1.023438 -3.230469 Z M 1.023438 -3.230469 "/></g></g></g><g fill="rgb(0%, 0%, 0%)" fill-opacity="1"><g transform="translate(221.687055, 222.620186)"><g><path d="M 1.1875 -3.375 C 1.328125 -3.375 1.472656 -3.414062 1.617188 -3.476562 L 1.839844 -3.578125 C 1.921875 -3.601562 1.984375 -3.601562 2.046875 -3.621094 C 2.085938 -3.621094 2.128906 -3.621094 2.148438 -3.621094 C 2.167969 -3.621094 2.207031 -3.640625 2.25 -3.660156 C 2.289062 -3.679688 2.332031 -3.679688 2.394531 -3.703125 C 2.433594 -3.703125 2.476562 -3.703125 2.496094 -3.703125 C 2.515625 -3.703125 2.554688 -3.722656 2.617188 -3.742188 C 2.679688 -3.761719 2.71875 -3.761719 2.78125 -3.785156 C 2.824219 -3.785156 2.863281 -3.785156 2.882812 -3.785156 C 2.945312 -3.804688 3.148438 -3.84375 3.496094 -3.90625 L 3.539062 -3.90625 C 3.679688 -3.949219 3.867188 -3.96875 4.050781 -3.96875 C 4.089844 -3.988281 4.132812 -3.988281 4.171875 -4.007812 C 4.214844 -4.007812 4.316406 -4.007812 4.480469 -4.027344 L 4.703125 -4.050781 C 4.828125 -4.089844 4.992188 -4.109375 5.214844 -4.109375 C 5.582031 -4.152344 5.828125 -4.316406 5.929688 -4.601562 C 5.992188 -4.722656 6.011719 -4.847656 6.011719 -4.949219 C 6.011719 -5.113281 5.953125 -5.277344 5.847656 -5.417969 C 5.707031 -5.644531 5.480469 -5.746094 5.175781 -5.746094 L 4.949219 -5.726562 C 4.722656 -5.726562 4.539062 -5.707031 4.355469 -5.664062 L 3.640625 -5.582031 C 3.210938 -5.523438 2.925781 -5.460938 2.824219 -5.441406 C 2.742188 -5.441406 2.636719 -5.417969 2.535156 -5.378906 L 2.351562 -5.359375 C 2.289062 -5.359375 2.1875 -5.339844 2.066406 -5.277344 C 2.023438 -5.277344 1.984375 -5.277344 1.964844 -5.257812 L 2.023438 -5.871094 C 2.046875 -6.011719 2.066406 -6.257812 2.066406 -6.585938 L 2.066406 -7.976562 L 2.167969 -7.996094 C 2.394531 -8.058594 2.535156 -8.078125 2.578125 -8.078125 C 2.617188 -8.078125 2.660156 -8.078125 2.679688 -8.097656 C 2.699219 -8.097656 2.742188 -8.097656 2.761719 -8.121094 C 2.78125 -8.121094 2.824219 -8.121094 2.84375 -8.121094 C 2.945312 -8.160156 3.046875 -8.179688 3.148438 -8.179688 C 3.171875 -8.179688 3.210938 -8.179688 3.273438 -8.203125 C 3.3125 -8.203125 3.375 -8.203125 3.4375 -8.203125 C 3.496094 -8.203125 3.539062 -8.203125 3.601562 -8.222656 C 3.660156 -8.222656 3.785156 -8.222656 3.96875 -8.222656 C 4.355469 -8.242188 4.601562 -8.386719 4.722656 -8.652344 C 4.785156 -8.792969 4.828125 -8.917969 4.828125 -9.058594 C 4.828125 -9.203125 4.785156 -9.328125 4.703125 -9.46875 C 4.5625 -9.734375 4.316406 -9.859375 3.988281 -9.859375 C 3.722656 -9.859375 3.578125 -9.859375 3.519531 -9.859375 C 3.457031 -9.835938 3.394531 -9.835938 3.355469 -9.835938 C 3.191406 -9.835938 3.066406 -9.816406 2.964844 -9.796875 C 2.761719 -9.796875 2.617188 -9.777344 2.515625 -9.734375 C 2.496094 -9.714844 2.476562 -9.714844 2.453125 -9.714844 C 2.414062 -9.695312 2.371094 -9.695312 2.351562 -9.695312 C 2.332031 -9.675781 2.3125 -9.675781 2.3125 -9.675781 C 2.289062 -9.675781 2.207031 -9.652344 2.066406 -9.632812 C 2.066406 -11.25 2.066406 -12.109375 2.066406 -12.191406 C 2.046875 -12.25 2.046875 -12.332031 2.046875 -12.394531 C 2.128906 -12.394531 2.230469 -12.414062 2.332031 -12.457031 L 2.578125 -12.515625 C 2.660156 -12.558594 2.742188 -12.578125 2.84375 -12.578125 C 3.027344 -12.640625 3.375 -12.660156 3.886719 -12.660156 C 3.988281 -12.660156 4.050781 -12.660156 4.070312 -12.660156 C 4.089844 -12.640625 4.296875 -12.640625 4.664062 -12.640625 C 5.03125 -12.660156 5.277344 -12.804688 5.417969 -13.070312 C 5.5 -13.210938 5.542969 -13.335938 5.542969 -13.476562 C 5.542969 -13.621094 5.5 -13.742188 5.417969 -13.886719 C 5.277344 -14.152344 5.050781 -14.277344 4.722656 -14.277344 L 4.027344 -14.277344 C 3.925781 -14.296875 3.824219 -14.296875 3.722656 -14.296875 L 3.171875 -14.277344 C 3.109375 -14.277344 2.902344 -14.253906 2.554688 -14.195312 C 2.414062 -14.171875 2.289062 -14.152344 2.1875 -14.113281 L 2.148438 -14.089844 C 2.066406 -14.070312 1.984375 -14.070312 1.921875 -14.050781 C 1.859375 -14.03125 1.800781 -14.011719 1.78125 -13.988281 C 1.617188 -14.132812 1.410156 -14.214844 1.1875 -14.214844 L 1.105469 -14.214844 C 0.941406 -14.214844 0.777344 -14.132812 0.632812 -13.988281 C 0.46875 -13.824219 0.386719 -13.621094 0.386719 -13.394531 C 0.386719 -13.355469 0.386719 -13.171875 0.410156 -12.84375 C 0.410156 -12.515625 0.410156 -12.3125 0.429688 -12.25 C 0.429688 -12.191406 0.429688 -11.1875 0.429688 -9.285156 C 0.429688 -7.300781 0.410156 -6.175781 0.386719 -5.953125 C 0.386719 -5.828125 0.367188 -5.746094 0.347656 -5.6875 C 0.347656 -5.5625 0.308594 -5.175781 0.226562 -4.519531 L 0.226562 -4.355469 C 0.226562 -4.089844 0.328125 -3.867188 0.511719 -3.703125 C 0.695312 -3.476562 0.921875 -3.375 1.1875 -3.375 Z M 1.1875 -3.375 "/></g></g></g><g fill="rgb(0%, 0%, 0%)" fill-opacity="1"><g transform="translate(233.201487, 222.620186)"><g><path d="M 3.886719 -3.007812 C 4.027344 -3.007812 4.152344 -3.046875 4.296875 -3.109375 C 4.5625 -3.25 4.703125 -3.519531 4.703125 -3.886719 L 4.683594 -4.886719 C 4.683594 -5.234375 4.683594 -5.460938 4.664062 -5.5625 C 4.664062 -6.054688 4.664062 -6.339844 4.644531 -6.441406 C 4.644531 -6.832031 4.644531 -7.054688 4.644531 -7.117188 C 4.621094 -7.179688 4.621094 -7.238281 4.621094 -7.300781 C 4.621094 -7.363281 4.621094 -7.425781 4.621094 -7.484375 C 4.601562 -7.546875 4.601562 -7.609375 4.601562 -7.667969 C 4.601562 -7.730469 4.601562 -7.773438 4.601562 -7.832031 C 4.582031 -7.875 4.582031 -7.9375 4.582031 -7.996094 C 4.582031 -8.058594 4.582031 -8.097656 4.582031 -8.160156 C 4.5625 -8.222656 4.5625 -8.261719 4.5625 -8.304688 C 4.5625 -8.34375 4.5625 -8.386719 4.5625 -8.425781 C 4.539062 -8.445312 4.539062 -8.488281 4.539062 -8.507812 C 4.601562 -8.570312 4.664062 -8.632812 4.703125 -8.691406 C 4.746094 -8.753906 4.785156 -8.792969 4.828125 -8.835938 C 4.867188 -8.875 4.929688 -8.980469 5.03125 -9.121094 C 5.09375 -9.183594 5.132812 -9.246094 5.175781 -9.304688 C 5.195312 -9.367188 5.234375 -9.40625 5.257812 -9.449219 C 5.316406 -9.550781 5.378906 -9.652344 5.441406 -9.777344 C 5.582031 -10 5.664062 -10.164062 5.707031 -10.265625 L 5.746094 -10.347656 C 5.808594 -10.453125 5.847656 -10.492188 5.847656 -10.511719 L 6.054688 -10.921875 C 6.117188 -11.042969 6.175781 -11.167969 6.238281 -11.289062 C 6.277344 -11.414062 6.320312 -11.535156 6.382812 -11.679688 C 6.484375 -11.863281 6.542969 -12.003906 6.566406 -12.109375 C 6.585938 -12.210938 6.648438 -12.332031 6.707031 -12.496094 L 6.832031 -12.886719 C 6.851562 -12.945312 6.871094 -12.988281 6.871094 -13.027344 C 6.933594 -13.171875 6.953125 -13.292969 6.953125 -13.394531 C 6.953125 -13.558594 6.890625 -13.703125 6.789062 -13.824219 C 6.625 -14.050781 6.402344 -14.152344 6.117188 -14.152344 C 5.746094 -14.152344 5.480469 -13.949219 5.316406 -13.539062 C 5.316406 -13.5 5.296875 -13.457031 5.277344 -13.417969 C 5.152344 -12.988281 5.070312 -12.761719 5.050781 -12.699219 C 5.011719 -12.640625 4.96875 -12.558594 4.949219 -12.496094 C 4.847656 -12.230469 4.785156 -12.066406 4.722656 -11.964844 C 4.683594 -11.84375 4.644531 -11.738281 4.601562 -11.636719 C 4.539062 -11.535156 4.5 -11.472656 4.480469 -11.414062 C 4.457031 -11.351562 4.417969 -11.308594 4.398438 -11.289062 C 4.375 -11.25 4.335938 -11.167969 4.273438 -11.042969 L 3.867188 -10.308594 C 3.804688 -10.226562 3.742188 -10.144531 3.703125 -10.0625 L 3.578125 -9.878906 L 3.558594 -9.878906 L 3.476562 -10.042969 C 3.394531 -10.246094 3.332031 -10.371094 3.292969 -10.410156 C 3.210938 -10.636719 3.148438 -10.757812 3.109375 -10.800781 C 3.046875 -10.960938 2.984375 -11.105469 2.925781 -11.207031 C 2.925781 -11.25 2.902344 -11.308594 2.84375 -11.371094 C 2.71875 -11.679688 2.617188 -11.882812 2.515625 -12.003906 C 2.476562 -12.066406 2.433594 -12.128906 2.394531 -12.230469 C 2.332031 -12.394531 2.269531 -12.515625 2.207031 -12.578125 C 2.148438 -12.742188 2.105469 -12.824219 2.085938 -12.824219 C 2.046875 -12.925781 2.003906 -13.007812 1.964844 -13.070312 L 1.882812 -13.234375 C 1.882812 -13.273438 1.859375 -13.316406 1.800781 -13.375 L 1.78125 -13.417969 C 1.636719 -13.742188 1.410156 -13.929688 1.105469 -13.949219 L 0.980469 -13.949219 C 0.734375 -13.949219 0.53125 -13.847656 0.367188 -13.621094 C 0.265625 -13.476562 0.203125 -13.335938 0.203125 -13.152344 C 0.203125 -13.027344 0.246094 -12.886719 0.308594 -12.742188 C 0.308594 -12.722656 0.328125 -12.679688 0.367188 -12.640625 C 0.386719 -12.597656 0.410156 -12.539062 0.429688 -12.476562 C 0.449219 -12.476562 0.492188 -12.414062 0.53125 -12.292969 C 0.550781 -12.273438 0.574219 -12.230469 0.59375 -12.210938 C 0.613281 -12.167969 0.613281 -12.128906 0.632812 -12.109375 C 0.757812 -11.882812 0.859375 -11.679688 0.960938 -11.453125 C 1.023438 -11.371094 1.042969 -11.308594 1.0625 -11.289062 C 1.082031 -11.269531 1.082031 -11.226562 1.082031 -11.207031 C 1.144531 -11.125 1.207031 -11.003906 1.269531 -10.859375 C 1.289062 -10.839844 1.328125 -10.800781 1.351562 -10.738281 C 1.371094 -10.675781 1.390625 -10.636719 1.410156 -10.59375 C 1.433594 -10.53125 1.453125 -10.492188 1.453125 -10.472656 C 1.511719 -10.390625 1.574219 -10.265625 1.636719 -10.105469 C 1.675781 -10.0625 1.738281 -9.941406 1.820312 -9.714844 C 1.839844 -9.695312 1.882812 -9.613281 1.941406 -9.488281 L 2.1875 -9 C 2.371094 -8.632812 2.617188 -8.363281 2.925781 -8.179688 C 2.925781 -8.140625 2.925781 -8.097656 2.945312 -8.039062 C 2.945312 -7.976562 2.945312 -7.9375 2.945312 -7.875 C 2.945312 -7.8125 2.945312 -7.773438 2.964844 -7.710938 C 2.964844 -7.648438 2.964844 -7.609375 2.964844 -7.546875 C 2.964844 -7.484375 2.964844 -7.425781 2.984375 -7.363281 C 2.984375 -7.300781 2.984375 -7.261719 2.984375 -7.199219 C 2.984375 -7.136719 2.984375 -7.097656 3.007812 -7.035156 C 3.007812 -6.972656 3.007812 -6.75 3.007812 -6.402344 C 3.027344 -6.277344 3.027344 -6.136719 3.027344 -5.972656 C 3.027344 -5.929688 3.027344 -5.871094 3.046875 -5.808594 C 3.046875 -5.746094 3.046875 -5.523438 3.046875 -5.132812 C 3.046875 -4.746094 3.046875 -4.5 3.066406 -4.417969 C 3.066406 -4.335938 3.066406 -4.152344 3.066406 -3.867188 C 3.066406 -3.496094 3.210938 -3.25 3.476562 -3.109375 C 3.621094 -3.046875 3.742188 -3.007812 3.886719 -3.007812 Z M 3.886719 -3.007812 "/></g></g></g></svg>